<?xml version="1.0" encoding="UTF-8"?>
<svg width="250px" height="250px" viewBox="0 0 250 250" version="1.1" xmlns="http://www.w3.org/2000/svg" xmlns:xlink="http://www.w3.org/1999/xlink">
    <!-- Generator: Sketch 53.2 (72643) - https://sketchapp.com -->
    <title>Group 57</title>
    <desc>Created with Sketch.</desc>
    <g id="Page-1" stroke="none" stroke-width="1" fill="none" fill-rule="evenodd">
        <g id="Desktop-HD-Copy-2" transform="translate(-1059.000000, -610.000000)">
            <g id="Group-57" transform="translate(1060.000000, 610.000000)">
                <path d="M250,125 C250,194.035 194.036,250 125,250 C55.964,250 0,194.035 0,125 C0,55.965 55.964,0 125,0 C194.036,0 250,55.965 250,125" id="Fill-1"></path>
                <path d="M79.5405,9.6191 L83.0095,8.5621 C83.3845,8.4481 83.7165,8.4391 84.0055,8.5371 C84.2955,8.6351 84.5355,8.8081 84.7225,9.0581 L91.3495,17.9111 C91.6435,18.2961 91.9505,18.7181 92.2715,19.1781 C92.5935,19.6371 92.9115,20.1251 93.2275,20.6421 C93.1755,20.0451 93.1505,19.4671 93.1525,18.9091 C93.1535,18.3511 93.1655,17.8321 93.1865,17.3511 L93.7275,6.3151 C93.7395,6.0521 93.8395,5.7851 94.0275,5.5191 C94.2165,5.2531 94.4885,5.0651 94.8465,4.9561 L98.3405,3.8911 L96.5535,24.7441 L92.6505,25.9331 L79.5405,9.6191 Z" id="Fill-3" fill="#000000"></path>
                <polygon id="Fill-5" fill="#000000" points="110.4683 21.8145 105.9933 22.5385 102.8893 3.3615 107.3643 2.6365"></polygon>
                <polygon id="Fill-7" fill="#000000" points="125.6182 1.2363 125.7822 4.6993 117.8182 5.0773 118.0332 9.6053 124.1332 9.3153 124.2912 12.6443 118.1922 12.9353 118.4112 17.5563 126.3752 17.1773 126.5392 20.6413 114.0472 21.2343 113.1262 1.8293"></polygon>
                <path d="M130.353,0.7148 L134.094,1.3028 C134.48,1.3638 134.789,1.5018 135.02,1.7188 C135.252,1.9358 135.385,2.1938 135.418,2.4968 L136.478,12.9208 C136.515,13.2598 136.548,13.6208 136.578,14.0028 C136.607,14.3858 136.612,14.7828 136.593,15.1938 C136.746,14.7948 136.904,14.4218 137.066,14.0728 C137.229,13.7258 137.384,13.3968 137.532,13.0868 L142.214,3.5658 C142.332,3.3318 142.536,3.1368 142.826,2.9808 C143.116,2.8228 143.446,2.7738 143.814,2.8318 L145.131,3.0388 C145.518,3.0998 145.823,3.2358 146.046,3.4448 C146.27,3.6558 146.406,3.9178 146.456,4.2328 L147.963,14.7278 C148.012,15.0498 148.061,15.3928 148.112,15.7558 C148.163,16.1198 148.197,16.5058 148.214,16.9128 C148.345,16.5368 148.475,16.1798 148.605,15.8408 C148.735,15.5008 148.863,15.1838 148.991,14.8888 L153.199,5.2928 C153.31,5.0498 153.512,4.8518 153.806,4.6988 C154.099,4.5488 154.43,4.5008 154.799,4.5588 L158.303,5.1098 L149.358,23.3688 L145.328,22.7358 L143.589,10.2748 C143.556,10.0798 143.524,9.8668 143.493,9.6378 C143.462,9.4068 143.435,9.1648 143.412,8.9088 C143.311,9.1468 143.212,9.3678 143.111,9.5778 C143.011,9.7868 142.916,9.9788 142.825,10.1538 L137.293,21.4718 L133.263,20.8378 L130.353,0.7148 Z" id="Fill-9" fill="#000000"></path>
                <path d="M180.4639,30.7383 C180.5579,30.7873 180.6439,30.8533 180.7199,30.9383 C180.7969,31.0233 180.8559,31.1313 180.8969,31.2623 L181.6169,33.7553 C180.4509,34.3013 179.2269,34.5343 177.9419,34.4543 C176.6559,34.3733 175.2999,33.9623 173.8729,33.2203 C172.5629,32.5413 171.5049,31.7093 170.6989,30.7243 C169.8919,29.7403 169.3319,28.6693 169.0179,27.5093 C168.7029,26.3493 168.6319,25.1303 168.8039,23.8523 C168.9769,22.5763 169.3909,21.3053 170.0459,20.0433 C170.7129,18.7583 171.5469,17.6903 172.5479,16.8423 C173.5479,15.9953 174.6479,15.3863 175.8459,15.0163 C177.0449,14.6473 178.3089,14.5323 179.6379,14.6713 C180.9679,14.8113 182.2989,15.2263 183.6329,15.9193 C184.2799,16.2543 184.8599,16.6283 185.3729,17.0393 C185.8849,17.4503 186.3379,17.8843 186.7299,18.3443 C187.1229,18.8033 187.4549,19.2813 187.7279,19.7783 C188.0009,20.2753 188.2109,20.7783 188.3589,21.2853 L186.0699,22.3953 C185.9259,22.4613 185.7709,22.5093 185.6059,22.5383 C185.4409,22.5663 185.2509,22.5273 185.0379,22.4163 C184.8959,22.3423 184.7779,22.2413 184.6849,22.1123 C184.5909,21.9843 184.4969,21.8383 184.4019,21.6723 C184.3069,21.5093 184.2029,21.3293 184.0879,21.1343 C183.9739,20.9393 183.8239,20.7363 183.6379,20.5253 C183.4519,20.3143 183.2199,20.0953 182.9419,19.8713 C182.6619,19.6463 182.3139,19.4253 181.8959,19.2073 C181.1699,18.8313 180.4409,18.6153 179.7079,18.5603 C178.9759,18.5063 178.2709,18.6053 177.5919,18.8593 C176.9149,19.1143 176.2789,19.5173 175.6869,20.0713 C175.0939,20.6253 174.5789,21.3243 174.1399,22.1683 C173.6819,23.0513 173.3949,23.8993 173.2789,24.7103 C173.1629,25.5213 173.1909,26.2693 173.3609,26.9543 C173.5319,27.6383 173.8299,28.2463 174.2549,28.7773 C174.6799,29.3083 175.2089,29.7383 175.8399,30.0653 C176.2029,30.2543 176.5439,30.4083 176.8619,30.5283 C177.1799,30.6483 177.4899,30.7313 177.7919,30.7783 C178.0919,30.8243 178.3959,30.8393 178.6999,30.8213 C179.0049,30.8033 179.3279,30.7543 179.6719,30.6723 C179.8069,30.6423 179.9429,30.6313 180.0809,30.6363 C180.2179,30.6423 180.3459,30.6763 180.4639,30.7383" id="Fill-11" fill="#000000"></path>
                <path d="M190.7793,34.8066 L194.9893,38.0366 L196.8103,32.7286 C196.9243,32.3906 197.0583,31.9926 197.2143,31.5356 C197.3693,31.0776 197.5493,30.5896 197.7533,30.0756 C197.3103,30.4176 196.8883,30.7276 196.4873,31.0026 C196.0863,31.2776 195.7303,31.5076 195.4183,31.6956 L190.7793,34.8066 Z M196.1613,48.2956 L193.3893,46.1696 C193.0793,45.9316 192.8793,45.6626 192.7893,45.3646 C192.6983,45.0666 192.7013,44.7736 192.7973,44.4896 L193.9483,41.1036 L188.0873,36.6086 L185.1163,38.5966 C184.8943,38.7406 184.6203,38.8126 184.2943,38.8156 C183.9673,38.8166 183.6563,38.7026 183.3603,38.4766 L180.5673,36.3346 L198.3583,25.4966 L202.0183,28.3046 L196.1613,48.2956 Z" id="Fill-13" fill="#000000"></path>
                <path d="M215.6558,46.7432 C215.4088,46.7932 215.1968,46.8012 215.0188,46.7672 C214.8398,46.7332 214.6718,46.6332 214.5128,46.4652 C214.3728,46.3162 214.2688,46.1112 214.2018,45.8512 C214.1338,45.5922 214.0558,45.2992 213.9688,44.9722 C213.8808,44.6452 213.7528,44.2992 213.5838,43.9322 C213.4158,43.5662 213.1638,43.2052 212.8288,42.8492 C212.2498,42.2342 211.6868,41.9002 211.1418,41.8472 C210.5968,41.7922 210.0998,41.9752 209.6538,42.3952 C209.3688,42.6642 209.2188,42.9772 209.2018,43.3362 C209.1848,43.6932 209.2468,44.0842 209.3888,44.5062 C209.5298,44.9292 209.7228,45.3832 209.9668,45.8672 C210.2098,46.3522 210.4478,46.8572 210.6798,47.3842 C210.9128,47.9092 211.1138,48.4492 211.2828,49.0052 C211.4518,49.5602 211.5298,50.1222 211.5158,50.6912 C211.5018,51.2592 211.3718,51.8312 211.1258,52.4042 C210.8788,52.9792 210.4608,53.5442 209.8718,54.0992 C209.2188,54.7152 208.5008,55.1782 207.7188,55.4872 C206.9358,55.7982 206.1298,55.9372 205.3008,55.9062 C204.4718,55.8752 203.6388,55.6592 202.8018,55.2562 C201.9648,54.8542 201.1678,54.2522 200.4128,53.4492 C199.9978,53.0112 199.6208,52.5192 199.2808,51.9782 C198.9428,51.4362 198.6548,50.8752 198.4168,50.2922 C198.1798,49.7102 197.9968,49.1242 197.8698,48.5362 C197.7428,47.9472 197.6868,47.3832 197.7038,46.8432 L200.1508,46.3682 C200.3348,46.3302 200.5228,46.3412 200.7158,46.4042 C200.9088,46.4672 201.0748,46.5712 201.2158,46.7212 C201.3988,46.9152 201.5218,47.1682 201.5848,47.4812 C201.6478,47.7952 201.7218,48.1462 201.8078,48.5352 C201.8938,48.9242 202.0278,49.3382 202.2098,49.7772 C202.3918,50.2172 202.6898,50.6562 203.1048,51.0972 C203.6648,51.6912 204.2318,52.0312 204.8048,52.1142 C205.3778,52.1972 205.9478,51.9702 206.5178,51.4332 C206.8478,51.1232 207.0308,50.7792 207.0678,50.4022 C207.1038,50.0272 207.0518,49.6272 206.9098,49.2052 C206.7688,48.7822 206.5728,48.3352 206.3228,47.8632 C206.0728,47.3892 205.8238,46.8962 205.5788,46.3832 C205.3328,45.8702 205.1258,45.3392 204.9568,44.7892 C204.7868,44.2402 204.7148,43.6782 204.7378,43.0992 C204.7608,42.5212 204.9118,41.9312 205.1918,41.3262 C205.4698,40.7212 205.9398,40.1072 206.5988,39.4852 C207.1298,38.9852 207.7478,38.6052 208.4528,38.3422 C209.1588,38.0802 209.9048,37.9712 210.6898,38.0132 C211.4738,38.0552 212.2688,38.2652 213.0718,38.6452 C213.8738,39.0242 214.6418,39.6012 215.3728,40.3792 C215.7818,40.8112 216.1458,41.2652 216.4648,41.7402 C216.7838,42.2152 217.0508,42.6992 217.2658,43.1932 C217.4808,43.6862 217.6468,44.1802 217.7638,44.6752 C217.8818,45.1682 217.9428,45.6522 217.9478,46.1232 L215.6558,46.7432 Z" id="Fill-15" fill="#000000"></path>
                <polygon id="Fill-17" fill="#000000" points="229.7422 59.041 226.9122 61.043 222.3062 54.534 218.6062 57.153 222.1342 62.137 219.4132 64.063 215.8852 59.078 212.1092 61.751 216.7152 68.259 213.8852 70.262 206.6602 60.053 222.5182 48.831"></polygon>
                <path d="M238.4438,86.5313 C238.1968,86.4833 237.9968,86.4103 237.8438,86.3123 C237.6918,86.2153 237.5738,86.0573 237.4898,85.8433 C237.4158,85.6523 237.3968,85.4243 237.4308,85.1583 C237.4658,84.8903 237.5038,84.5913 237.5458,84.2553 C237.5868,83.9193 237.5978,83.5503 237.5798,83.1463 C237.5618,82.7443 237.4638,82.3143 237.2868,81.8593 C236.9818,81.0723 236.5858,80.5513 236.0998,80.2953 C235.6148,80.0413 235.0868,80.0243 234.5148,80.2463 C234.1508,80.3883 233.8928,80.6223 233.7428,80.9473 C233.5928,81.2723 233.5048,81.6583 233.4768,82.1023 C233.4488,82.5473 233.4568,83.0403 233.4998,83.5813 C233.5438,84.1223 233.5738,84.6793 233.5928,85.2543 C233.6108,85.8283 233.5938,86.4053 233.5418,86.9833 C233.4898,87.5613 233.3508,88.1113 233.1248,88.6343 C232.8978,89.1543 232.5628,89.6353 232.1178,90.0763 C231.6738,90.5153 231.0748,90.8813 230.3208,91.1743 C229.4838,91.4993 228.6448,91.6583 227.8028,91.6513 C226.9618,91.6443 226.1618,91.4723 225.4048,91.1323 C224.6488,90.7913 223.9578,90.2773 223.3338,89.5913 C222.7088,88.9033 222.1968,88.0463 221.7978,87.0183 C221.5778,86.4553 221.4138,85.8593 221.3028,85.2303 C221.1918,84.6013 221.1358,83.9723 221.1338,83.3433 C221.1338,82.7143 221.1848,82.1023 221.2878,81.5103 C221.3908,80.9163 221.5518,80.3723 221.7688,79.8773 L224.2158,80.3583 C224.4008,80.3903 224.5698,80.4713 224.7258,80.6023 C224.8808,80.7323 224.9958,80.8923 225.0698,81.0853 C225.1668,81.3333 225.1858,81.6143 225.1268,81.9273 C225.0668,82.2423 225.0038,82.5943 224.9378,82.9873 C224.8708,83.3813 224.8398,83.8153 224.8428,84.2903 C224.8458,84.7653 224.9578,85.2853 225.1768,85.8493 C225.4728,86.6113 225.8708,87.1373 226.3708,87.4303 C226.8708,87.7223 227.4848,87.7263 228.2138,87.4443 C228.6368,87.2793 228.9348,87.0293 229.1098,86.6963 C229.2848,86.3603 229.3858,85.9703 229.4138,85.5253 C229.4418,85.0813 229.4278,84.5933 229.3738,84.0603 C229.3198,83.5293 229.2758,82.9783 229.2398,82.4103 C229.2058,81.8433 229.2128,81.2713 229.2628,80.7003 C229.3118,80.1283 229.4558,79.5783 229.6948,79.0513 C229.9338,78.5243 230.2958,78.0343 230.7818,77.5773 C231.2678,77.1223 231.9328,76.7293 232.7778,76.4013 C233.4578,76.1373 234.1728,76.0173 234.9258,76.0393 C235.6778,76.0613 236.4098,76.2393 237.1218,76.5733 C237.8328,76.9073 238.4898,77.4013 239.0918,78.0533 C239.6938,78.7073 240.1878,79.5313 240.5738,80.5253 C240.7898,81.0803 240.9558,81.6373 241.0728,82.1973 C241.1908,82.7583 241.2558,83.3073 241.2698,83.8453 C241.2828,84.3833 241.2518,84.9043 241.1748,85.4053 C241.0978,85.9063 240.9728,86.3773 240.8008,86.8163 L238.4438,86.5313 Z" id="Fill-19" fill="#000000"></path>
                <polygon id="Fill-21" fill="#000000" points="247.2085 104.8926 243.7255 105.6886 242.5075 100.3596 227.0525 103.8916 226.0485 99.4986 241.5025 95.9656 240.2845 90.6366 243.7685 89.8406"></polygon>
                <path d="M232.5464,118.708 C232.5814,119.312 232.7124,119.845 232.9394,120.308 C233.1664,120.771 233.4754,121.156 233.8674,121.463 C234.2584,121.77 234.7274,121.994 235.2744,122.137 C235.8214,122.278 236.4364,122.331 237.1204,122.292 L248.6074,121.629 L248.8664,126.128 L237.3794,126.79 C236.1904,126.858 235.0874,126.729 234.0714,126.399 C233.0554,126.07 232.1674,125.568 231.4064,124.891 C230.6464,124.213 230.0374,123.371 229.5784,122.365 C229.1204,121.358 228.8534,120.212 228.7794,118.925 C228.7044,117.629 228.8374,116.455 229.1774,115.403 C229.5174,114.351 230.0254,113.444 230.7034,112.684 C231.3804,111.924 232.2054,111.324 233.1774,110.886 C234.1494,110.447 235.2304,110.193 236.4194,110.125 L247.9064,109.462 L248.1664,113.962 L236.6914,114.622 C236.0074,114.662 235.4024,114.784 234.8764,114.988 C234.3494,115.192 233.9064,115.469 233.5484,115.818 C233.1904,116.17 232.9244,116.587 232.7524,117.073 C232.5804,117.56 232.5114,118.104 232.5464,118.708" id="Fill-23" fill="#000000"></path>
                <path d="M237.3989,144.0449 C238.3519,144.1639 239.2279,144.1489 240.0249,143.9979 C240.8239,143.8489 241.5189,143.5749 242.1109,143.1789 C242.7029,142.7839 243.1849,142.2689 243.5559,141.6349 C243.9259,140.9999 244.1659,140.2559 244.2739,139.3999 L244.6499,136.4099 L232.2539,134.8499 L231.8779,137.8389 C231.7709,138.6929 231.8169,139.4759 232.0199,140.1819 C232.2219,140.8889 232.5609,141.5059 233.0359,142.0359 C233.5109,142.5659 234.1169,143.0039 234.8529,143.3479 C235.5889,143.6909 236.4379,143.9239 237.3989,144.0449 M236.8229,148.6209 C235.4289,148.4449 234.1739,148.0439 233.0579,147.4149 C231.9409,146.7849 231.0069,145.9809 230.2569,144.9989 C229.5069,144.0179 228.9689,142.8819 228.6439,141.5909 C228.3179,140.3009 228.2499,138.9049 228.4389,137.4049 L229.3809,129.9189 L248.6559,132.3459 L247.7129,139.8329 C247.5239,141.3319 247.1099,142.6659 246.4699,143.8359 C245.8299,145.0049 245.0269,145.9729 244.0619,146.7369 C243.0959,147.5019 241.9949,148.0519 240.7559,148.3849 C239.5189,148.7169 238.2079,148.7969 236.8229,148.6209" id="Fill-25" fill="#000000"></path>
                <polygon id="Fill-27" fill="#000000" points="225.0674 154.1201 226.2364 149.7401 245.0064 154.7491 243.8374 159.1291"></polygon>
                <polygon id="Fill-29" fill="#000000" points="237.6396 176.3545 234.4136 175.0855 237.3326 167.6655 233.1146 166.0055 230.8786 171.6875 227.7766 170.4665 230.0126 164.7855 225.7066 163.0905 222.7876 170.5095 219.5616 169.2415 224.1406 157.6035 242.2186 164.7165"></polygon>
                <path d="M226.564,188.4854 C226.444,188.2644 226.374,188.0644 226.354,187.8834 C226.333,187.7034 226.38,187.5124 226.494,187.3124 C226.596,187.1334 226.76,186.9744 226.988,186.8344 C227.216,186.6914 227.474,186.5314 227.76,186.3504 C228.046,186.1714 228.339,185.9464 228.64,185.6774 C228.94,185.4084 229.212,185.0614 229.453,184.6364 C229.869,183.9024 230.023,183.2664 229.914,182.7284 C229.805,182.1914 229.483,181.7724 228.95,181.4684 C228.609,181.2764 228.266,181.2244 227.919,181.3134 C227.572,181.4034 227.218,181.5784 226.856,181.8374 C226.494,182.0964 226.117,182.4144 225.725,182.7904 C225.333,183.1664 224.921,183.5424 224.487,183.9194 C224.053,184.2974 223.596,184.6474 223.115,184.9724 C222.634,185.2974 222.12,185.5384 221.572,185.6924 C221.025,185.8474 220.44,185.8904 219.819,185.8234 C219.198,185.7574 218.535,185.5254 217.832,185.1254 C217.05,184.6834 216.397,184.1324 215.87,183.4774 C215.343,182.8204 214.972,182.0914 214.757,181.2894 C214.543,180.4884 214.504,179.6284 214.642,178.7104 C214.779,177.7914 215.121,176.8534 215.665,175.8944 C215.963,175.3694 216.32,174.8644 216.738,174.3804 C217.155,173.8974 217.607,173.4554 218.094,173.0574 C218.581,172.6584 219.086,172.3124 219.612,172.0174 C220.136,171.7224 220.66,171.5034 221.181,171.3594 L222.355,173.5584 C222.446,173.7224 222.49,173.9054 222.487,174.1094 C222.484,174.3114 222.433,174.5024 222.332,174.6794 C222.201,174.9124 221.994,175.1044 221.713,175.2564 C221.433,175.4084 221.119,175.5844 220.772,175.7794 C220.426,175.9764 220.069,176.2274 219.703,176.5304 C219.337,176.8344 219.005,177.2484 218.707,177.7734 C218.303,178.4844 218.146,179.1274 218.235,179.6994 C218.325,180.2704 218.71,180.7504 219.39,181.1344 C219.784,181.3594 220.167,181.4334 220.537,181.3564 C220.907,181.2814 221.273,181.1124 221.635,180.8524 C221.997,180.5934 222.367,180.2744 222.745,179.8954 C223.124,179.5184 223.522,179.1354 223.939,178.7504 C224.358,178.3634 224.805,178.0084 225.279,177.6854 C225.754,177.3614 226.271,177.1274 226.83,176.9784 C227.389,176.8314 227.999,176.8004 228.659,176.8894 C229.319,176.9774 230.043,177.2464 230.832,177.6934 C231.466,178.0524 232.012,178.5324 232.47,179.1294 C232.929,179.7244 233.253,180.4054 233.444,181.1684 C233.635,181.9294 233.668,182.7514 233.542,183.6314 C233.417,184.5094 233.09,185.4124 232.564,186.3394 C232.27,186.8584 231.943,187.3394 231.584,187.7854 C231.224,188.2304 230.84,188.6274 230.431,188.9774 C230.023,189.3294 229.6,189.6324 229.162,189.8904 C228.725,190.1484 228.281,190.3494 227.832,190.4924 L226.564,188.4854 Z" id="Fill-31" fill="#000000"></path>
                <path d="M209.604,203.5557 L207.968,205.2387 C207.622,205.5947 207.334,205.9417 207.106,206.2787 C206.878,206.6147 206.73,206.9447 206.663,207.2687 C206.595,207.5937 206.622,207.9177 206.743,208.2397 C206.863,208.5627 207.092,208.8867 207.431,209.2157 C207.762,209.5377 208.078,209.7637 208.378,209.8947 C208.679,210.0257 208.979,210.0707 209.281,210.0287 C209.582,209.9867 209.89,209.8617 210.204,209.6527 C210.519,209.4437 210.853,209.1587 211.206,208.7947 L213.046,206.9027 L209.604,203.5557 Z M207.443,201.4547 L203.974,198.0807 L201.761,200.3567 C201.347,200.7837 201.061,201.1847 200.906,201.5617 C200.751,201.9377 200.686,202.2847 200.709,202.6067 C200.732,202.9267 200.824,203.2207 200.985,203.4887 C201.146,203.7567 201.338,203.9987 201.562,204.2157 C201.816,204.4637 202.078,204.6537 202.348,204.7847 C202.616,204.9147 202.899,204.9687 203.198,204.9427 C203.496,204.9147 203.814,204.8067 204.15,204.6137 C204.487,204.4197 204.854,204.1187 205.25,203.7107 L207.443,201.4547 Z M204.677,192.4797 L218.606,206.0217 L213.624,211.1457 C212.689,212.1077 211.803,212.8407 210.968,213.3427 C210.133,213.8447 209.345,214.1517 208.604,214.2617 C207.865,214.3727 207.167,214.2987 206.513,214.0407 C205.859,213.7847 205.245,213.3757 204.672,212.8187 C204.359,212.5147 204.101,212.1777 203.898,211.8067 C203.695,211.4347 203.559,211.0297 203.49,210.5907 C203.42,210.1517 203.428,209.6817 203.512,209.1807 C203.596,208.6797 203.766,208.1457 204.022,207.5767 C202.907,208.2767 201.885,208.6037 200.958,208.5567 C200.03,208.5097 199.174,208.1057 198.39,207.3437 C197.797,206.7677 197.357,206.1167 197.07,205.3917 C196.784,204.6657 196.666,203.8987 196.718,203.0867 C196.769,202.2757 197.004,201.4407 197.422,200.5827 C197.841,199.7247 198.456,198.8787 199.268,198.0437 L204.677,192.4797 Z" id="Fill-33" fill="#000000"></path>
                <path d="M189.0337,216.3838 L184.6687,210.4238 L188.3047,207.7608 L192.6697,213.7208 L205.4627,219.2738 L202.2577,221.6208 C201.9427,221.8538 201.6377,221.9618 201.3437,221.9518 C201.0487,221.9418 200.7607,221.8638 200.4777,221.7188 L194.9217,218.7808 C194.4737,218.5458 194.0617,218.3298 193.6857,218.1328 C193.3097,217.9338 192.9537,217.7268 192.6177,217.5098 C192.7367,217.8968 192.8327,218.2988 192.9087,218.7178 C192.9837,219.1368 193.0667,219.5878 193.1577,220.0718 L194.3027,226.2408 C194.3277,226.3648 194.3377,226.5018 194.3297,226.6508 C194.3237,226.7988 194.2997,226.9458 194.2577,227.0918 C194.2157,227.2378 194.1497,227.3808 194.0577,227.5198 C193.9667,227.6578 193.8457,227.7818 193.6957,227.8928 L190.4677,230.2558 L189.0337,216.3838 Z" id="Fill-35" fill="#000000"></path>
                <path d="M163.751,238.3477 C163.797,238.0997 163.869,237.8997 163.967,237.7457 C164.064,237.5937 164.221,237.4757 164.436,237.3917 C164.626,237.3167 164.855,237.2967 165.121,237.3307 C165.388,237.3657 165.688,237.4027 166.024,237.4427 C166.36,237.4827 166.73,237.4937 167.132,237.4737 C167.535,237.4547 167.964,237.3557 168.419,237.1787 C169.206,236.8697 169.726,236.4737 169.98,235.9887 C170.233,235.5007 170.248,234.9727 170.024,234.4027 C169.882,234.0377 169.647,233.7817 169.322,233.6307 C168.997,233.4827 168.611,233.3957 168.167,233.3687 C167.722,233.3417 167.229,233.3507 166.689,233.3967 C166.147,233.4397 165.59,233.4727 165.015,233.4927 C164.44,233.5127 163.864,233.4957 163.286,233.4457 C162.708,233.3957 162.157,233.2577 161.635,233.0337 C161.112,232.8067 160.631,232.4727 160.19,232.0297 C159.75,231.5867 159.381,230.9887 159.086,230.2357 C158.759,229.3997 158.598,228.5607 158.603,227.7187 C158.607,226.8767 158.779,226.0767 159.117,225.3197 C159.455,224.5627 159.967,223.8687 160.653,223.2437 C161.338,222.6187 162.194,222.1027 163.221,221.7017 C163.783,221.4817 164.379,221.3157 165.009,221.2017 C165.637,221.0897 166.266,221.0327 166.895,221.0297 C167.524,221.0277 168.135,221.0767 168.729,221.1787 C169.322,221.2797 169.867,221.4387 170.362,221.6557 L169.888,224.1037 C169.855,224.2877 169.774,224.4577 169.644,224.6147 C169.514,224.7707 169.355,224.8847 169.164,224.9587 C168.915,225.0567 168.634,225.0767 168.32,225.0177 C168.006,224.9587 167.652,224.8977 167.26,224.8317 C166.866,224.7657 166.432,224.7357 165.957,224.7407 C165.481,224.7447 164.962,224.8577 164.399,225.0777 C163.638,225.3757 163.111,225.7747 162.82,226.2767 C162.529,226.7767 162.526,227.3907 162.812,228.1187 C162.977,228.5407 163.227,228.8387 163.563,229.0137 C163.898,229.1877 164.288,229.2867 164.732,229.3147 C165.177,229.3397 165.666,229.3267 166.197,229.2707 C166.73,229.2157 167.279,229.1687 167.848,229.1327 C168.416,229.0977 168.986,229.1027 169.558,229.1517 C170.131,229.1987 170.681,229.3417 171.208,229.5777 C171.735,229.8167 172.228,230.1777 172.685,230.6617 C173.141,231.1467 173.535,231.8117 173.865,232.6557 C174.131,233.3337 174.254,234.0497 174.233,234.8027 C174.213,235.5547 174.037,236.2867 173.705,236.9997 C173.372,237.7117 172.88,238.3697 172.229,238.9727 C171.578,239.5767 170.755,240.0737 169.762,240.4607 C169.207,240.6777 168.65,240.8467 168.09,240.9647 C167.531,241.0847 166.981,241.1507 166.443,241.1657 C165.905,241.1807 165.385,241.1507 164.883,241.0757 C164.381,240.9997 163.91,240.8757 163.471,240.7047 L163.751,238.3477 Z" id="Fill-37" fill="#000000"></path>
                <path d="M143.1987,232.8447 C143.0947,232.8667 142.9867,232.8707 142.8727,232.8557 C142.7607,232.8397 142.6457,232.7947 142.5287,232.7217 L140.3747,231.2777 C140.9147,230.1087 141.7027,229.1417 142.7387,228.3767 C143.7737,227.6127 145.0767,227.0537 146.6467,226.7027 C148.0867,226.3797 149.4327,226.3367 150.6827,226.5717 C151.9327,226.8057 153.0517,227.2667 154.0387,227.9507 C155.0257,228.6367 155.8637,229.5247 156.5537,230.6137 C157.2437,231.7007 157.7437,232.9417 158.0547,234.3277 C158.3707,235.7427 158.4187,237.0967 158.1987,238.3887 C157.9777,239.6807 157.5277,240.8547 156.8477,241.9077 C156.1687,242.9617 155.2747,243.8647 154.1677,244.6127 C153.0597,245.3617 151.7727,245.9007 150.3067,246.2287 C149.5957,246.3877 148.9117,246.4747 148.2547,246.4907 C147.5977,246.5047 146.9707,246.4627 146.3747,246.3647 C145.7787,246.2647 145.2167,246.1137 144.6877,245.9077 C144.1587,245.7027 143.6757,245.4527 143.2367,245.1597 L144.2737,242.8377 C144.3417,242.6947 144.4297,242.5587 144.5377,242.4297 C144.6457,242.3007 144.8167,242.2097 145.0507,242.1577 C145.2067,242.1227 145.3627,242.1247 145.5167,242.1627 C145.6707,242.2007 145.8377,242.2527 146.0157,242.3177 C146.1947,242.3827 146.3897,242.4527 146.6027,242.5287 C146.8157,242.6037 147.0607,242.6617 147.3387,242.7047 C147.6167,242.7467 147.9357,242.7647 148.2937,242.7577 C148.6517,242.7497 149.0607,242.6947 149.5207,242.5927 C150.3187,242.4137 151.0157,242.1097 151.6117,241.6807 C152.2077,241.2497 152.6837,240.7207 153.0387,240.0897 C153.3947,239.4597 153.6207,238.7417 153.7187,237.9367 C153.8157,237.1307 153.7607,236.2647 153.5527,235.3357 C153.3357,234.3657 153.0107,233.5317 152.5767,232.8357 C152.1427,232.1407 151.6407,231.5847 151.0697,231.1707 C150.4987,230.7577 149.8797,230.4837 149.2127,230.3497 C148.5447,230.2167 147.8647,230.2287 147.1707,230.3827 C146.7717,230.4737 146.4117,230.5737 146.0907,230.6867 C145.7697,230.7997 145.4787,230.9357 145.2187,231.0947 C144.9577,231.2517 144.7167,231.4367 144.4947,231.6457 C144.2727,231.8547 144.0567,232.1007 143.8467,232.3847 C143.7627,232.4947 143.6657,232.5917 143.5567,232.6757 C143.4487,232.7587 143.3287,232.8157 143.1987,232.8447" id="Fill-39" fill="#000000"></path>
                <path d="M133.9565,239.1465 L132.1455,239.2445 C131.5335,239.2765 131.0165,239.3815 130.5945,239.5605 C130.1715,239.7385 129.8305,239.9725 129.5705,240.2625 C129.3105,240.5525 129.1265,240.8855 129.0225,241.2605 C128.9175,241.6345 128.8775,242.0355 128.9005,242.4615 C128.9455,243.3135 129.2585,243.9645 129.8385,244.4145 C130.4185,244.8645 131.2905,245.0575 132.4535,244.9965 L134.2645,244.8995 L133.9565,239.1465 Z M133.7905,236.0445 L133.4075,228.8695 L137.9075,228.6275 L138.9445,248.0265 L132.6335,248.3645 C131.2315,248.4395 130.0275,248.3595 129.0225,248.1235 C128.0175,247.8885 127.1885,247.5295 126.5345,247.0475 C125.8815,246.5655 125.3945,245.9835 125.0725,245.2965 C124.7515,244.6105 124.5685,243.8555 124.5245,243.0295 C124.4905,242.3995 124.5425,241.7995 124.6815,241.2315 C124.8205,240.6635 125.0425,240.1335 125.3505,239.6405 C125.6585,239.1485 126.0435,238.7035 126.5075,238.3025 C126.9715,237.9045 127.5125,237.5695 128.1295,237.2955 C127.8195,237.1605 127.5285,236.9895 127.2545,236.7815 C126.9805,236.5735 126.7375,236.3155 126.5255,236.0055 L122.0375,229.4765 L126.1115,229.2585 C126.8655,229.2175 127.4225,229.4735 127.7805,230.0235 L131.3045,235.4835 C131.4595,235.7245 131.6355,235.8925 131.8315,235.9885 C132.0285,236.0855 132.2995,236.1255 132.6455,236.1055 L133.7905,236.0445 Z" id="Fill-41" fill="#000000"></path>
                <path d="M105.4541,237.3477 C105.3361,238.3007 105.3541,239.1737 105.5071,239.9677 C105.6601,240.7607 105.9351,241.4517 106.3321,242.0377 C106.7301,242.6247 107.2471,243.1007 107.8831,243.4657 C108.5181,243.8297 109.2641,244.0657 110.1191,244.1717 C110.9841,244.2797 111.7711,244.2317 112.4811,244.0337 C113.1911,243.8347 113.8091,243.4977 114.3381,243.0277 C114.8671,242.5547 115.3021,241.9517 115.6431,241.2197 C115.9851,240.4877 116.2141,239.6457 116.3311,238.6927 C116.4501,237.7307 116.4331,236.8537 116.2801,236.0597 C116.1281,235.2657 115.8521,234.5757 115.4551,233.9897 C115.0581,233.4027 114.5381,232.9287 113.8971,232.5677 C113.2571,232.2057 112.5041,231.9717 111.6401,231.8657 C110.7841,231.7597 110.0041,231.8047 109.2991,231.9997 C108.5941,232.1947 107.9771,232.5287 107.4491,232.9997 C106.9201,233.4727 106.4851,234.0747 106.1441,234.8067 C105.8031,235.5387 105.5731,236.3867 105.4541,237.3477 M100.8751,236.7837 C101.0481,235.3887 101.4491,234.1217 102.0781,232.9817 C102.7061,231.8407 103.5121,230.8807 104.4951,230.1027 C105.4781,229.3247 106.6161,228.7587 107.9091,228.4097 C109.2011,228.0577 110.5981,227.9747 112.0981,228.1597 C113.5981,228.3457 114.9331,228.7667 116.1071,229.4217 C117.2791,230.0767 118.2501,230.9017 119.0181,231.8967 C119.7871,232.8917 120.3371,234.0187 120.6691,235.2777 C121.0021,236.5367 121.0821,237.8647 120.9101,239.2567 C120.7381,240.6517 120.3381,241.9187 119.7081,243.0587 C119.0791,244.1997 118.2711,245.1567 117.2851,245.9297 C116.2981,246.7037 115.1561,247.2667 113.8591,247.6157 C112.5621,247.9667 111.1631,248.0487 109.6631,247.8637 C108.1631,247.6777 106.8301,247.2567 105.6621,246.5967 C104.4941,245.9377 103.5281,245.1127 102.7631,244.1227 C101.9981,243.1327 101.4511,242.0077 101.1181,240.7497 C100.7861,239.4907 100.7041,238.1667 100.8751,236.7837" id="Fill-43" fill="#000000"></path>
                <polygon id="Fill-45" fill="#000000" points="94.9204 228.5146 88.0204 226.4556 89.0494 223.0056 100.2684 226.3536 94.7134 244.9696 90.3954 243.6806"></polygon>
                <polygon id="Fill-47" fill="#000000" points="81.5347 223.6436 74.9697 220.6876 76.4487 217.4046 87.1227 222.2116 79.1457 239.9246 75.0357 238.0746"></polygon>
                <polygon id="Fill-49" fill="#000000" points="70.3755 213.7402 74.2845 216.0362 64.4475 232.7892 60.5385 230.4932"></polygon>
                <path d="M52.9585,225.5586 C52.8655,225.4606 52.7915,225.3616 52.7385,225.2566 C52.6845,225.1526 52.6465,225.0356 52.6255,224.9046 C52.6035,224.7746 52.5905,224.6116 52.5865,224.4156 L52.5635,209.5416 C52.3605,209.8566 52.1575,210.1576 51.9535,210.4446 C51.7505,210.7306 51.5525,210.9966 51.3595,211.2416 L44.9955,219.3136 L41.8745,216.8536 L53.9025,201.5986 L55.7455,203.0506 C56.0175,203.2646 56.2145,203.4886 56.3365,203.7206 C56.4595,203.9546 56.5195,204.2496 56.5185,204.6116 L56.5465,219.3716 C56.7345,219.0896 56.9225,218.8156 57.1085,218.5496 C57.2955,218.2836 57.4775,218.0386 57.6535,217.8156 L64.1005,209.6376 L67.2205,212.0976 L55.1935,227.3536 L53.3305,225.8846 C53.1765,225.7636 53.0525,225.6546 52.9585,225.5586" id="Fill-51" fill="#000000"></path>
                <path d="M43.356,194.8223 C42.946,194.3543 42.543,193.9753 42.146,193.6833 C41.75,193.3933 41.344,193.1463 40.929,192.9423 L38.712,194.8843 L39.978,196.3293 C40.166,196.5433 40.255,196.7593 40.247,196.9793 C40.238,197.1993 40.148,197.3853 39.974,197.5383 L38.109,199.1723 L33.557,193.9773 L39.724,188.5733 C40.326,188.7093 40.903,188.8903 41.455,189.1233 C42.006,189.3533 42.546,189.6433 43.075,189.9893 C43.603,190.3373 44.125,190.7423 44.638,191.2093 C45.152,191.6733 45.67,192.2043 46.192,192.7983 C47.129,193.8683 47.808,195.0223 48.227,196.2623 C48.646,197.5033 48.814,198.7483 48.731,199.9963 C48.649,201.2443 48.317,202.4563 47.735,203.6343 C47.154,204.8113 46.329,205.8693 45.259,206.8053 C44.169,207.7603 43.01,208.4573 41.781,208.8963 C40.552,209.3353 39.313,209.5093 38.062,209.4163 C36.811,209.3243 35.585,208.9633 34.382,208.3333 C33.18,207.7023 32.063,206.7993 31.032,205.6223 C30.499,205.0133 30.048,204.3973 29.679,203.7753 C29.311,203.1533 29.016,202.5393 28.794,201.9353 C28.573,201.3333 28.418,200.7383 28.331,200.1533 C28.244,199.5683 28.212,199.0063 28.234,198.4653 L30.59,198.1373 C30.813,198.1083 31.021,198.1233 31.215,198.1843 C31.41,198.2443 31.574,198.3513 31.709,198.5053 C31.884,198.7053 32,198.9703 32.053,199.3013 C32.127,199.7103 32.21,200.0853 32.3,200.4253 C32.392,200.7633 32.509,201.0903 32.652,201.4013 C32.794,201.7133 32.97,202.0203 33.177,202.3243 C33.384,202.6283 33.636,202.9503 33.935,203.2913 C34.491,203.9263 35.105,204.3993 35.773,204.7113 C36.443,205.0233 37.138,205.1783 37.859,205.1783 C38.581,205.1793 39.312,205.0273 40.053,204.7183 C40.795,204.4123 41.517,203.9523 42.218,203.3363 C42.994,202.6563 43.589,201.9463 44.003,201.2053 C44.418,200.4653 44.666,199.7233 44.75,198.9823 C44.833,198.2413 44.757,197.5163 44.52,196.8083 C44.283,196.0983 43.896,195.4373 43.356,194.8223" id="Fill-53" fill="#000000"></path>
                <polygon id="Fill-55" fill="#000000" points="18.0918 159.7285 18.0778 159.6855 16.8248 155.5455 15.7378 151.3855 14.8158 147.2055 14.0518 142.9705 13.4478 138.7055 13.0098 134.4145 12.7358 130.1235 12.6248 125.9465 12.6728 121.5155 12.8858 117.2295 13.2608 112.9425 13.7988 108.6775 14.4978 104.4435 15.3638 100.2185 16.3918 96.0335 17.5738 91.9105 18.9208 87.8115 20.4208 83.7865 22.0758 79.8145 23.8858 75.9035 25.8388 72.0755 27.9438 68.3165 30.1848 64.6475 32.5608 61.0755 35.0808 57.5825 37.7298 54.1935 40.5018 50.9075 43.3968 47.7335 46.4238 44.6565 49.5518 41.7115 52.7888 38.8895 53.9418 37.9335 55.5778 39.9355 54.4518 40.8695 51.2878 43.6285 48.2318 46.5055 45.2738 49.5125 42.4458 52.6145 39.7368 55.8235 37.1498 59.1355 34.6868 62.5465 32.3648 66.0395 30.1748 69.6225 28.1198 73.2935 26.2108 77.0335 24.4438 80.8565 22.8258 84.7345 21.3618 88.6675 20.0448 92.6695 18.8908 96.6975 17.8858 100.7875 17.0408 104.9135 16.3578 109.0505 15.8328 113.2165 15.4658 117.4065 15.2588 121.5945 15.2108 125.9065 15.3188 130.0075 15.5868 134.2015 16.0168 138.3925 16.6048 142.5605 17.3518 146.6975 18.2518 150.7805 19.3138 154.8445 20.5378 158.8885 20.5508 158.9275"></polygon>
            </g>
        </g>
    </g>
</svg>