<?xml version="1.0" encoding="utf-8"?>
<!-- Generator: Adobe Illustrator 22.1.0, SVG Export Plug-In . SVG Version: 6.00 Build 0)  -->
<svg version="1.1" id="Layer_1" xmlns="http://www.w3.org/2000/svg" xmlns:xlink="http://www.w3.org/1999/xlink" x="0px" y="0px"
	 viewBox="0 0 250 250" style="enable-background:new 0 0 250 250;" xml:space="preserve">
<title>Group 57</title>
<desc>Created with Sketch.</desc>
<path id="Fill-3" d="M80.5,9.6L84,8.6c0.4-0.1,0.7-0.1,1,0c0.3,0.1,0.5,0.3,0.7,0.5l6.6,8.9c0.3,0.4,0.6,0.8,0.9,1.3
	c0.3,0.5,0.6,0.9,1,1.5c-0.1-0.6-0.1-1.2-0.1-1.7c0-0.6,0-1.1,0-1.6l0.5-11c0-0.3,0.1-0.5,0.3-0.8c0.2-0.3,0.5-0.5,0.8-0.6l3.5-1.1
	l-1.8,20.9l-3.9,1.2L80.5,9.6z"/>
<polygon id="Fill-5" points="111.5,21.8 107,22.5 103.9,3.4 108.4,2.6 "/>
<polygon id="Fill-7" points="126.6,1.2 126.8,4.7 118.8,5.1 119,9.6 125.1,9.3 125.3,12.6 119.2,12.9 119.4,17.6 127.4,17.2 
	127.5,20.6 115,21.2 114.1,1.8 "/>
<path id="Fill-9" d="M131.4,0.7l3.7,0.6c0.4,0.1,0.7,0.2,0.9,0.4c0.2,0.2,0.4,0.5,0.4,0.8l1.1,10.4c0,0.3,0.1,0.7,0.1,1.1
	c0,0.4,0,0.8,0,1.2c0.2-0.4,0.3-0.8,0.5-1.1c0.2-0.3,0.3-0.7,0.5-1l4.7-9.5c0.1-0.2,0.3-0.4,0.6-0.6c0.3-0.2,0.6-0.2,1-0.1l1.3,0.2
	c0.4,0.1,0.7,0.2,0.9,0.4c0.2,0.2,0.4,0.5,0.4,0.8l1.5,10.5c0,0.3,0.1,0.7,0.1,1c0.1,0.4,0.1,0.8,0.1,1.2c0.1-0.4,0.3-0.7,0.4-1.1
	c0.1-0.3,0.3-0.7,0.4-1l4.2-9.6c0.1-0.2,0.3-0.4,0.6-0.6c0.3-0.2,0.6-0.2,1-0.1l3.5,0.6l-8.9,18.3l-4-0.6l-1.7-12.5
	c0-0.2-0.1-0.4-0.1-0.6c0-0.2-0.1-0.5-0.1-0.7c-0.1,0.2-0.2,0.5-0.3,0.7c-0.1,0.2-0.2,0.4-0.3,0.6l-5.5,11.3l-4-0.6L131.4,0.7z"/>
<path id="Fill-11" d="M181.5,30.7c0.1,0,0.2,0.1,0.3,0.2c0.1,0.1,0.1,0.2,0.2,0.3l0.7,2.5c-1.2,0.5-2.4,0.8-3.7,0.7
	c-1.3-0.1-2.6-0.5-4.1-1.2c-1.3-0.7-2.4-1.5-3.2-2.5c-0.8-1-1.4-2.1-1.7-3.2c-0.3-1.2-0.4-2.4-0.2-3.7c0.2-1.3,0.6-2.5,1.2-3.8
	c0.7-1.3,1.5-2.4,2.5-3.2c1-0.8,2.1-1.5,3.3-1.8c1.2-0.4,2.5-0.5,3.8-0.3c1.3,0.1,2.7,0.6,4,1.2c0.6,0.3,1.2,0.7,1.7,1.1
	c0.5,0.4,1,0.8,1.4,1.3c0.4,0.5,0.7,0.9,1,1.4c0.3,0.5,0.5,1,0.6,1.5l-2.3,1.1c-0.1,0.1-0.3,0.1-0.5,0.1c-0.2,0-0.4,0-0.6-0.1
	c-0.1-0.1-0.3-0.2-0.4-0.3c-0.1-0.1-0.2-0.3-0.3-0.4c-0.1-0.2-0.2-0.3-0.3-0.5c-0.1-0.2-0.3-0.4-0.5-0.6c-0.2-0.2-0.4-0.4-0.7-0.7
	c-0.3-0.2-0.6-0.4-1-0.7c-0.7-0.4-1.5-0.6-2.2-0.6c-0.7-0.1-1.4,0-2.1,0.3c-0.7,0.3-1.3,0.7-1.9,1.2c-0.6,0.6-1.1,1.3-1.5,2.1
	c-0.5,0.9-0.7,1.7-0.9,2.5c-0.1,0.8-0.1,1.6,0.1,2.2c0.2,0.7,0.5,1.3,0.9,1.8s1,1,1.6,1.3c0.4,0.2,0.7,0.3,1,0.5
	c0.3,0.1,0.6,0.2,0.9,0.2c0.3,0,0.6,0.1,0.9,0c0.3,0,0.6-0.1,1-0.1c0.1,0,0.3,0,0.4,0C181.2,30.6,181.3,30.7,181.5,30.7"/>
<path id="Fill-13" d="M191.8,34.8L196,38l1.8-5.3c0.1-0.3,0.2-0.7,0.4-1.2c0.2-0.5,0.3-0.9,0.5-1.5c-0.4,0.3-0.9,0.7-1.3,0.9
	s-0.8,0.5-1.1,0.7L191.8,34.8z M197.2,48.3l-2.8-2.1c-0.3-0.2-0.5-0.5-0.6-0.8c-0.1-0.3-0.1-0.6,0-0.9l1.2-3.4l-5.9-4.5l-3,2
	c-0.2,0.1-0.5,0.2-0.8,0.2c-0.3,0-0.6-0.1-0.9-0.3l-2.8-2.1l17.8-10.8l3.7,2.8L197.2,48.3z"/>
<path id="Fill-15" d="M216.7,46.7c-0.2,0.1-0.5,0.1-0.6,0c-0.2,0-0.3-0.1-0.5-0.3c-0.1-0.1-0.2-0.4-0.3-0.6
	c-0.1-0.3-0.1-0.6-0.2-0.9c-0.1-0.3-0.2-0.7-0.4-1c-0.2-0.4-0.4-0.7-0.8-1.1c-0.6-0.6-1.1-0.9-1.7-1c-0.5-0.1-1,0.1-1.5,0.5
	c-0.3,0.3-0.4,0.6-0.5,0.9c0,0.4,0,0.7,0.2,1.2c0.1,0.4,0.3,0.9,0.6,1.4c0.2,0.5,0.5,1,0.7,1.5c0.2,0.5,0.4,1.1,0.6,1.6
	c0.2,0.6,0.2,1.1,0.2,1.7c0,0.6-0.1,1.1-0.4,1.7c-0.2,0.6-0.7,1.1-1.3,1.7c-0.7,0.6-1.4,1.1-2.2,1.4c-0.8,0.3-1.6,0.4-2.4,0.4
	c-0.8,0-1.7-0.2-2.5-0.7c-0.8-0.4-1.6-1-2.4-1.8c-0.4-0.4-0.8-0.9-1.1-1.5c-0.3-0.5-0.6-1.1-0.9-1.7c-0.2-0.6-0.4-1.2-0.5-1.8
	c-0.1-0.6-0.2-1.2-0.2-1.7l2.4-0.5c0.2,0,0.4,0,0.6,0c0.2,0.1,0.4,0.2,0.5,0.3c0.2,0.2,0.3,0.4,0.4,0.8c0.1,0.3,0.1,0.7,0.2,1.1
	s0.2,0.8,0.4,1.2c0.2,0.4,0.5,0.9,0.9,1.3c0.6,0.6,1.1,0.9,1.7,1c0.6,0.1,1.1-0.1,1.7-0.7c0.3-0.3,0.5-0.7,0.5-1
	c0-0.4,0-0.8-0.2-1.2c-0.1-0.4-0.3-0.9-0.6-1.3c-0.2-0.5-0.5-1-0.7-1.5c-0.2-0.5-0.5-1-0.6-1.6c-0.2-0.5-0.2-1.1-0.2-1.7
	c0-0.6,0.2-1.2,0.5-1.8c0.3-0.6,0.7-1.2,1.4-1.8c0.5-0.5,1.1-0.9,1.9-1.1c0.7-0.3,1.5-0.4,2.2-0.3c0.8,0,1.6,0.3,2.4,0.6
	c0.8,0.4,1.6,1,2.3,1.7c0.4,0.4,0.8,0.9,1.1,1.4s0.6,1,0.8,1.5c0.2,0.5,0.4,1,0.5,1.5c0.1,0.5,0.2,1,0.2,1.4L216.7,46.7z"/>
<polygon id="Fill-17" points="230.7,59 227.9,61 223.3,54.5 219.6,57.2 223.1,62.1 220.4,64.1 216.9,59.1 213.1,61.8 217.7,68.3 
	214.9,70.3 207.7,60.1 223.5,48.8 "/>
<path id="Fill-19" d="M239.4,86.5c-0.2,0-0.4-0.1-0.6-0.2c-0.2-0.1-0.3-0.3-0.4-0.5c-0.1-0.2-0.1-0.4-0.1-0.7c0-0.3,0.1-0.6,0.1-0.9
	c0-0.3,0.1-0.7,0-1.1c0-0.4-0.1-0.8-0.3-1.3c-0.3-0.8-0.7-1.3-1.2-1.6c-0.5-0.3-1-0.3-1.6,0c-0.4,0.1-0.6,0.4-0.8,0.7
	c-0.1,0.3-0.2,0.7-0.3,1.2c0,0.4,0,0.9,0,1.5c0,0.5,0.1,1.1,0.1,1.7c0,0.6,0,1.2-0.1,1.7c-0.1,0.6-0.2,1.1-0.4,1.7
	c-0.2,0.5-0.6,1-1,1.4c-0.4,0.4-1,0.8-1.8,1.1c-0.8,0.3-1.7,0.5-2.5,0.5c-0.8,0-1.6-0.2-2.4-0.5c-0.8-0.3-1.4-0.9-2.1-1.5
	c-0.6-0.7-1.1-1.5-1.5-2.6c-0.2-0.6-0.4-1.2-0.5-1.8c-0.1-0.6-0.2-1.3-0.2-1.9c0-0.6,0.1-1.2,0.2-1.8c0.1-0.6,0.3-1.1,0.5-1.6
	l2.4,0.5c0.2,0,0.4,0.1,0.5,0.2c0.2,0.1,0.3,0.3,0.3,0.5c0.1,0.2,0.1,0.5,0.1,0.8c-0.1,0.3-0.1,0.7-0.2,1.1
	c-0.1,0.4-0.1,0.8-0.1,1.3c0,0.5,0.1,1,0.3,1.6c0.3,0.8,0.7,1.3,1.2,1.6c0.5,0.3,1.1,0.3,1.8,0c0.4-0.2,0.7-0.4,0.9-0.7
	c0.2-0.3,0.3-0.7,0.3-1.2c0-0.4,0-0.9,0-1.5c-0.1-0.5-0.1-1.1-0.1-1.7c0-0.6,0-1.1,0-1.7c0-0.6,0.2-1.1,0.4-1.6
	c0.2-0.5,0.6-1,1.1-1.5c0.5-0.5,1.2-0.8,2-1.2c0.7-0.3,1.4-0.4,2.1-0.4c0.8,0,1.5,0.2,2.2,0.5c0.7,0.3,1.4,0.8,2,1.5
	c0.6,0.7,1.1,1.5,1.5,2.5c0.2,0.6,0.4,1.1,0.5,1.7c0.1,0.6,0.2,1.1,0.2,1.6c0,0.5,0,1.1-0.1,1.6c-0.1,0.5-0.2,1-0.4,1.4L239.4,86.5z
	"/>
<polygon id="Fill-21" points="248.2,104.9 244.7,105.7 243.5,100.4 228.1,103.9 227,99.5 242.5,96 241.3,90.6 244.8,89.8 "/>
<path id="Fill-23" d="M233.5,118.7c0,0.6,0.2,1.1,0.4,1.6c0.2,0.5,0.5,0.8,0.9,1.2c0.4,0.3,0.9,0.5,1.4,0.7c0.5,0.1,1.2,0.2,1.8,0.2
	l11.5-0.7l0.3,4.5l-11.5,0.7c-1.2,0.1-2.3-0.1-3.3-0.4c-1-0.3-1.9-0.8-2.7-1.5c-0.8-0.7-1.4-1.5-1.8-2.5c-0.5-1-0.7-2.2-0.8-3.4
	c-0.1-1.3,0.1-2.5,0.4-3.5s0.8-2,1.5-2.7c0.7-0.8,1.5-1.4,2.5-1.8c1-0.4,2.1-0.7,3.2-0.8l11.5-0.7l0.3,4.5l-11.5,0.7
	c-0.7,0-1.3,0.2-1.8,0.4c-0.5,0.2-1,0.5-1.3,0.8c-0.4,0.4-0.6,0.8-0.8,1.3C233.6,117.6,233.5,118.1,233.5,118.7"/>
<path id="Fill-25" d="M238.4,144c1,0.1,1.8,0.1,2.6,0c0.8-0.1,1.5-0.4,2.1-0.8c0.6-0.4,1.1-0.9,1.4-1.5c0.4-0.6,0.6-1.4,0.7-2.2
	l0.4-3l-12.4-1.6l-0.4,3c-0.1,0.9-0.1,1.6,0.1,2.3c0.2,0.7,0.5,1.3,1,1.9c0.5,0.5,1.1,1,1.8,1.3C236.6,143.7,237.4,143.9,238.4,144
	 M237.8,148.6c-1.4-0.2-2.6-0.6-3.8-1.2c-1.1-0.6-2.1-1.4-2.8-2.4c-0.8-1-1.3-2.1-1.6-3.4c-0.3-1.3-0.4-2.7-0.2-4.2l0.9-7.5
	l19.3,2.4l-0.9,7.5c-0.2,1.5-0.6,2.8-1.2,4c-0.6,1.2-1.4,2.1-2.4,2.9c-1,0.8-2.1,1.3-3.3,1.6C240.5,148.7,239.2,148.8,237.8,148.6"
	/>
<polygon id="Fill-27" points="226.1,154.1 227.2,149.7 246,154.7 244.8,159.1 "/>
<polygon id="Fill-29" points="238.6,176.4 235.4,175.1 238.3,167.7 234.1,166 231.9,171.7 228.8,170.5 231,164.8 226.7,163.1 
	223.8,170.5 220.6,169.2 225.1,157.6 243.2,164.7 "/>
<path id="Fill-31" d="M227.6,188.5c-0.1-0.2-0.2-0.4-0.2-0.6c0-0.2,0-0.4,0.1-0.6c0.1-0.2,0.3-0.3,0.5-0.5c0.2-0.1,0.5-0.3,0.8-0.5
	c0.3-0.2,0.6-0.4,0.9-0.7c0.3-0.3,0.6-0.6,0.8-1c0.4-0.7,0.6-1.4,0.5-1.9c-0.1-0.5-0.4-1-1-1.3c-0.3-0.2-0.7-0.2-1-0.2
	c-0.3,0.1-0.7,0.3-1.1,0.5s-0.7,0.6-1.1,1c-0.4,0.4-0.8,0.8-1.2,1.1c-0.4,0.4-0.9,0.7-1.4,1.1c-0.5,0.3-1,0.6-1.5,0.7
	c-0.5,0.2-1.1,0.2-1.8,0.1c-0.6-0.1-1.3-0.3-2-0.7c-0.8-0.4-1.4-1-2-1.6c-0.5-0.7-0.9-1.4-1.1-2.2c-0.2-0.8-0.3-1.7-0.1-2.6
	c0.1-0.9,0.5-1.9,1-2.8c0.3-0.5,0.7-1,1.1-1.5c0.4-0.5,0.9-0.9,1.4-1.3c0.5-0.4,1-0.7,1.5-1c0.5-0.3,1-0.5,1.6-0.7l1.2,2.2
	c0.1,0.2,0.1,0.3,0.1,0.6c0,0.2-0.1,0.4-0.2,0.6c-0.1,0.2-0.3,0.4-0.6,0.6c-0.3,0.2-0.6,0.3-0.9,0.5c-0.3,0.2-0.7,0.4-1.1,0.8
	c-0.4,0.3-0.7,0.7-1,1.2c-0.4,0.7-0.6,1.4-0.5,1.9c0.1,0.6,0.5,1.1,1.2,1.4c0.4,0.2,0.8,0.3,1.1,0.2c0.4-0.1,0.7-0.2,1.1-0.5
	c0.4-0.3,0.7-0.6,1.1-1c0.4-0.4,0.8-0.8,1.2-1.1c0.4-0.4,0.9-0.7,1.3-1.1c0.5-0.3,1-0.6,1.6-0.7c0.6-0.1,1.2-0.2,1.8-0.1
	c0.7,0.1,1.4,0.4,2.2,0.8c0.6,0.4,1.2,0.8,1.6,1.4c0.5,0.6,0.8,1.3,1,2c0.2,0.8,0.2,1.6,0.1,2.5c-0.1,0.9-0.5,1.8-1,2.7
	c-0.3,0.5-0.6,1-1,1.4c-0.4,0.4-0.7,0.8-1.2,1.2c-0.4,0.4-0.8,0.7-1.3,0.9c-0.4,0.3-0.9,0.5-1.3,0.6L227.6,188.5z"/>
<path id="Fill-33" d="M210.6,203.6l-1.6,1.7c-0.3,0.4-0.6,0.7-0.9,1c-0.2,0.3-0.4,0.7-0.4,1c-0.1,0.3,0,0.6,0.1,1
	c0.1,0.3,0.3,0.6,0.7,1c0.3,0.3,0.6,0.5,0.9,0.7c0.3,0.1,0.6,0.2,0.9,0.1c0.3,0,0.6-0.2,0.9-0.4c0.3-0.2,0.6-0.5,1-0.9l1.8-1.9
	L210.6,203.6z M208.4,201.5l-3.5-3.4l-2.2,2.3c-0.4,0.4-0.7,0.8-0.9,1.2c-0.2,0.4-0.2,0.7-0.2,1c0,0.3,0.1,0.6,0.3,0.9
	c0.2,0.3,0.4,0.5,0.6,0.7c0.3,0.2,0.5,0.4,0.8,0.6c0.3,0.1,0.6,0.2,0.8,0.2c0.3,0,0.6-0.1,1-0.3c0.3-0.2,0.7-0.5,1.1-0.9
	L208.4,201.5z M205.7,192.5l13.9,13.5l-5,5.1c-0.9,1-1.8,1.7-2.7,2.2c-0.8,0.5-1.6,0.8-2.4,0.9c-0.7,0.1-1.4,0-2.1-0.2
	c-0.7-0.3-1.3-0.7-1.8-1.2c-0.3-0.3-0.6-0.6-0.8-1c-0.2-0.4-0.3-0.8-0.4-1.2c-0.1-0.4-0.1-0.9,0-1.4c0.1-0.5,0.3-1,0.5-1.6
	c-1.1,0.7-2.1,1-3.1,1c-0.9,0-1.8-0.5-2.6-1.2c-0.6-0.6-1-1.2-1.3-2c-0.3-0.7-0.4-1.5-0.4-2.3c0.1-0.8,0.3-1.6,0.7-2.5
	c0.4-0.9,1-1.7,1.8-2.5L205.7,192.5z"/>
<path id="Fill-35" d="M190,216.4l-4.4-6l3.6-2.7l4.4,6l12.8,5.6l-3.2,2.3c-0.3,0.2-0.6,0.3-0.9,0.3c-0.3,0-0.6-0.1-0.9-0.2l-5.6-2.9
	c-0.4-0.2-0.9-0.5-1.2-0.6c-0.4-0.2-0.7-0.4-1.1-0.6c0.1,0.4,0.2,0.8,0.3,1.2c0.1,0.4,0.2,0.9,0.2,1.4l1.1,6.2c0,0.1,0,0.3,0,0.4
	c0,0.1,0,0.3-0.1,0.4c0,0.1-0.1,0.3-0.2,0.4c-0.1,0.1-0.2,0.3-0.4,0.4l-3.2,2.4L190,216.4z"/>
<path id="Fill-37" d="M164.8,238.3c0-0.2,0.1-0.4,0.2-0.6c0.1-0.2,0.3-0.3,0.5-0.4c0.2-0.1,0.4-0.1,0.7-0.1c0.3,0,0.6,0.1,0.9,0.1
	c0.3,0,0.7,0.1,1.1,0c0.4,0,0.8-0.1,1.3-0.3c0.8-0.3,1.3-0.7,1.6-1.2c0.3-0.5,0.3-1,0-1.6c-0.1-0.4-0.4-0.6-0.7-0.8
	c-0.3-0.1-0.7-0.2-1.2-0.3c-0.4,0-0.9,0-1.5,0c-0.5,0-1.1,0.1-1.7,0.1c-0.6,0-1.2,0-1.7,0c-0.6,0-1.1-0.2-1.7-0.4
	c-0.5-0.2-1-0.6-1.4-1c-0.4-0.4-0.8-1-1.1-1.8c-0.3-0.8-0.5-1.7-0.5-2.5c0-0.8,0.2-1.6,0.5-2.4s0.8-1.5,1.5-2.1
	c0.7-0.6,1.5-1.1,2.6-1.5c0.6-0.2,1.2-0.4,1.8-0.5c0.6-0.1,1.3-0.2,1.9-0.2c0.6,0,1.2,0,1.8,0.1c0.6,0.1,1.1,0.3,1.6,0.5l-0.5,2.4
	c0,0.2-0.1,0.4-0.2,0.5c-0.1,0.2-0.3,0.3-0.5,0.3c-0.2,0.1-0.5,0.1-0.8,0.1c-0.3-0.1-0.7-0.1-1.1-0.2c-0.4-0.1-0.8-0.1-1.3-0.1
	c-0.5,0-1,0.1-1.6,0.3c-0.8,0.3-1.3,0.7-1.6,1.2c-0.3,0.5-0.3,1.1,0,1.8c0.2,0.4,0.4,0.7,0.8,0.9c0.3,0.2,0.7,0.3,1.2,0.3
	c0.4,0,0.9,0,1.5,0c0.5-0.1,1.1-0.1,1.7-0.1c0.6,0,1.1,0,1.7,0c0.6,0,1.1,0.2,1.6,0.4c0.5,0.2,1,0.6,1.5,1.1c0.5,0.5,0.9,1.2,1.2,2
	c0.3,0.7,0.4,1.4,0.4,2.1c0,0.8-0.2,1.5-0.5,2.2c-0.3,0.7-0.8,1.4-1.5,2c-0.7,0.6-1.5,1.1-2.5,1.5c-0.6,0.2-1.1,0.4-1.7,0.5
	c-0.6,0.1-1.1,0.2-1.6,0.2c-0.5,0-1.1,0-1.6-0.1c-0.5-0.1-1-0.2-1.4-0.4L164.8,238.3z"/>
<path id="Fill-39" d="M144.2,232.8c-0.1,0-0.2,0-0.3,0c-0.1,0-0.2-0.1-0.3-0.1l-2.2-1.4c0.5-1.2,1.3-2.1,2.4-2.9
	c1-0.8,2.3-1.3,3.9-1.7c1.4-0.3,2.8-0.4,4-0.1c1.2,0.2,2.4,0.7,3.4,1.4c1,0.7,1.8,1.6,2.5,2.7c0.7,1.1,1.2,2.3,1.5,3.7
	c0.3,1.4,0.4,2.8,0.1,4.1c-0.2,1.3-0.7,2.5-1.4,3.5c-0.7,1.1-1.6,2-2.7,2.7c-1.1,0.7-2.4,1.3-3.9,1.6c-0.7,0.2-1.4,0.2-2.1,0.3
	c-0.7,0-1.3,0-1.9-0.1c-0.6-0.1-1.2-0.3-1.7-0.5c-0.5-0.2-1-0.5-1.5-0.7l1-2.3c0.1-0.1,0.2-0.3,0.3-0.4s0.3-0.2,0.5-0.3
	c0.2,0,0.3,0,0.5,0c0.2,0,0.3,0.1,0.5,0.2c0.2,0.1,0.4,0.1,0.6,0.2c0.2,0.1,0.5,0.1,0.7,0.2c0.3,0,0.6,0.1,1,0.1
	c0.4,0,0.8-0.1,1.2-0.2c0.8-0.2,1.5-0.5,2.1-0.9c0.6-0.4,1.1-1,1.4-1.6c0.4-0.6,0.6-1.3,0.7-2.2c0.1-0.8,0-1.7-0.2-2.6
	c-0.2-1-0.5-1.8-1-2.5c-0.4-0.7-0.9-1.3-1.5-1.7c-0.6-0.4-1.2-0.7-1.9-0.8c-0.7-0.1-1.3-0.1-2,0c-0.4,0.1-0.8,0.2-1.1,0.3
	c-0.3,0.1-0.6,0.2-0.9,0.4c-0.3,0.2-0.5,0.3-0.7,0.6s-0.4,0.5-0.6,0.7c-0.1,0.1-0.2,0.2-0.3,0.3
	C144.4,232.8,144.3,232.8,144.2,232.8"/>
<path id="Fill-41" d="M135,239.1l-1.8,0.1c-0.6,0-1.1,0.1-1.6,0.3c-0.4,0.2-0.8,0.4-1,0.7c-0.3,0.3-0.4,0.6-0.5,1
	c-0.1,0.4-0.1,0.8-0.1,1.2c0,0.9,0.4,1.5,0.9,2c0.6,0.4,1.5,0.6,2.6,0.6l1.8-0.1L135,239.1z M134.8,236l-0.4-7.2l4.5-0.2l1,19.4
	l-6.3,0.3c-1.4,0.1-2.6,0-3.6-0.2c-1-0.2-1.8-0.6-2.5-1.1c-0.7-0.5-1.1-1.1-1.5-1.8c-0.3-0.7-0.5-1.4-0.5-2.3c0-0.6,0-1.2,0.2-1.8
	c0.1-0.6,0.4-1.1,0.7-1.6c0.3-0.5,0.7-0.9,1.2-1.3c0.5-0.4,1-0.7,1.6-1c-0.3-0.1-0.6-0.3-0.9-0.5c-0.3-0.2-0.5-0.5-0.7-0.8l-4.5-6.5
	l4.1-0.2c0.8,0,1.3,0.2,1.7,0.8l3.5,5.5c0.2,0.2,0.3,0.4,0.5,0.5c0.2,0.1,0.5,0.1,0.8,0.1L134.8,236z"/>
<path id="Fill-43" d="M106.5,237.3c-0.1,1-0.1,1.8,0.1,2.6c0.2,0.8,0.4,1.5,0.8,2.1c0.4,0.6,0.9,1.1,1.6,1.4
	c0.6,0.4,1.4,0.6,2.2,0.7c0.9,0.1,1.7,0.1,2.4-0.1c0.7-0.2,1.3-0.5,1.9-1c0.5-0.5,1-1.1,1.3-1.8c0.3-0.7,0.6-1.6,0.7-2.5
	c0.1-1,0.1-1.8-0.1-2.6c-0.2-0.8-0.4-1.5-0.8-2.1c-0.4-0.6-0.9-1.1-1.6-1.4c-0.6-0.4-1.4-0.6-2.3-0.7c-0.9-0.1-1.6-0.1-2.3,0.1
	c-0.7,0.2-1.3,0.5-1.9,1c-0.5,0.5-1,1.1-1.3,1.8C106.8,235.5,106.6,236.4,106.5,237.3 M101.9,236.8c0.2-1.4,0.6-2.7,1.2-3.8
	c0.6-1.1,1.4-2.1,2.4-2.9s2.1-1.3,3.4-1.7c1.3-0.4,2.7-0.4,4.2-0.2c1.5,0.2,2.8,0.6,4,1.3c1.2,0.7,2.1,1.5,2.9,2.5
	c0.8,1,1.3,2.1,1.7,3.4c0.3,1.3,0.4,2.6,0.2,4c-0.2,1.4-0.6,2.7-1.2,3.8c-0.6,1.1-1.4,2.1-2.4,2.9c-1,0.8-2.1,1.3-3.4,1.7
	c-1.3,0.4-2.7,0.4-4.2,0.2c-1.5-0.2-2.8-0.6-4-1.3c-1.2-0.7-2.1-1.5-2.9-2.5c-0.8-1-1.3-2.1-1.6-3.4
	C101.8,239.5,101.7,238.2,101.9,236.8"/>
<polygon id="Fill-45" points="95.9,228.5 89,226.5 90,223 101.3,226.4 95.7,245 91.4,243.7 "/>
<polygon id="Fill-47" points="82.5,223.6 76,220.7 77.4,217.4 88.1,222.2 80.1,239.9 76,238.1 "/>
<polygon id="Fill-49" points="71.4,213.7 75.3,216 65.4,232.8 61.5,230.5 "/>
<path id="Fill-51" d="M54,225.6c-0.1-0.1-0.2-0.2-0.2-0.3c-0.1-0.1-0.1-0.2-0.1-0.4c0-0.1,0-0.3,0-0.5l0-14.9
	c-0.2,0.3-0.4,0.6-0.6,0.9c-0.2,0.3-0.4,0.6-0.6,0.8l-6.4,8.1l-3.1-2.5l12-15.3l1.8,1.5c0.3,0.2,0.5,0.4,0.6,0.7
	c0.1,0.2,0.2,0.5,0.2,0.9l0,14.8c0.2-0.3,0.4-0.6,0.6-0.8c0.2-0.3,0.4-0.5,0.5-0.7l6.4-8.2l3.1,2.5l-12,15.3l-1.9-1.5
	C54.2,225.8,54.1,225.7,54,225.6"/>
<path id="Fill-53" d="M44.4,194.8c-0.4-0.5-0.8-0.8-1.2-1.1c-0.4-0.3-0.8-0.5-1.2-0.7l-2.2,1.9l1.3,1.4c0.2,0.2,0.3,0.4,0.3,0.6
	c0,0.2-0.1,0.4-0.3,0.6l-1.9,1.6l-4.6-5.2l6.2-5.4c0.6,0.1,1.2,0.3,1.7,0.6c0.6,0.2,1.1,0.5,1.6,0.9c0.5,0.3,1,0.8,1.6,1.2
	c0.5,0.5,1,1,1.6,1.6c0.9,1.1,1.6,2.2,2,3.5c0.4,1.2,0.6,2.5,0.5,3.7c-0.1,1.2-0.4,2.5-1,3.6c-0.6,1.2-1.4,2.2-2.5,3.2
	c-1.1,1-2.2,1.7-3.5,2.1s-2.5,0.6-3.7,0.5c-1.3-0.1-2.5-0.5-3.7-1.1c-1.2-0.6-2.3-1.5-3.4-2.7c-0.5-0.6-1-1.2-1.4-1.8
	c-0.4-0.6-0.7-1.2-0.9-1.8c-0.2-0.6-0.4-1.2-0.5-1.8c-0.1-0.6-0.1-1.1-0.1-1.7l2.4-0.3c0.2,0,0.4,0,0.6,0c0.2,0.1,0.4,0.2,0.5,0.3
	c0.2,0.2,0.3,0.5,0.3,0.8c0.1,0.4,0.2,0.8,0.2,1.1c0.1,0.3,0.2,0.7,0.4,1c0.1,0.3,0.3,0.6,0.5,0.9c0.2,0.3,0.5,0.6,0.8,1
	c0.6,0.6,1.2,1.1,1.8,1.4c0.7,0.3,1.4,0.5,2.1,0.5c0.7,0,1.5-0.2,2.2-0.5c0.7-0.3,1.5-0.8,2.2-1.4c0.8-0.7,1.4-1.4,1.8-2.1
	c0.4-0.7,0.7-1.5,0.7-2.2c0.1-0.7,0-1.5-0.2-2.2C45.3,196.1,44.9,195.4,44.4,194.8"/>
<polygon id="Fill-55" points="19.1,159.7 19.1,159.7 17.8,155.5 16.7,151.4 15.8,147.2 15.1,143 14.4,138.7 14,134.4 13.7,130.1 
	13.6,125.9 13.7,121.5 13.9,117.2 14.3,112.9 14.8,108.7 15.5,104.4 16.4,100.2 17.4,96 18.6,91.9 19.9,87.8 21.4,83.8 23.1,79.8 
	24.9,75.9 26.8,72.1 28.9,68.3 31.2,64.6 33.6,61.1 36.1,57.6 38.7,54.2 41.5,50.9 44.4,47.7 47.4,44.7 50.6,41.7 53.8,38.9 
	54.9,37.9 56.6,39.9 55.5,40.9 52.3,43.6 49.2,46.5 46.3,49.5 43.4,52.6 40.7,55.8 38.1,59.1 35.7,62.5 33.4,66 31.2,69.6 
	29.1,73.3 27.2,77 25.4,80.9 23.8,84.7 22.4,88.7 21,92.7 19.9,96.7 18.9,100.8 18,104.9 17.4,109.1 16.8,113.2 16.5,117.4 
	16.3,121.6 16.2,125.9 16.3,130 16.6,134.2 17,138.4 17.6,142.6 18.4,146.7 19.3,150.8 20.3,154.8 21.5,158.9 21.6,158.9 "/>
</svg>
